<svg width="24" height="24" viewBox="0 0 24 24" fill="none" xmlns="http://www.w3.org/2000/svg">
<path fill-rule="evenodd" clip-rule="evenodd" d="M17.5805 16.916L22.4832 22.6692L21.6329 23.4L16.7168 17.6468C15.0249 18.9312 13.1205 19.5734 11.0034 19.5734C9.71904 19.5734 8.49003 19.3231 7.3164 18.8227C6.14277 18.3222 5.13297 17.649 4.28702 16.8031C3.44106 15.9572 2.76787 14.9474 2.26745 13.7737C1.76702 12.6001 1.51679 11.3711 1.51676 10.0867C1.51672 8.80232 1.76695 7.5733 2.26745 6.39964C2.76794 5.22597 3.44113 4.21618 4.28702 3.37026C5.1329 2.52434 6.1427 1.85115 7.3164 1.35069C8.4901 0.85023 9.71911 0.6 11.0034 0.6C12.2878 0.6 13.5168 0.85023 14.6905 1.35069C15.8642 1.85115 16.874 2.52434 17.7199 3.37026C18.5658 4.21618 19.2389 5.22597 19.7394 6.39964C20.2399 7.5733 20.4902 8.80232 20.4901 10.0867C20.4901 11.4065 20.2333 12.6554 19.7195 13.8335C19.2058 15.0116 18.4927 16.0391 17.5803 16.9161L17.5805 16.916ZM11.0036 18.4573C12.5182 18.4573 13.9177 18.083 15.2021 17.3345C16.4866 16.586 17.503 15.5695 18.2515 14.2852C18.9999 13.0008 19.3742 11.6013 19.3742 10.0866C19.3743 8.57188 19 7.17235 18.2515 5.88798C17.5029 4.60362 16.4865 3.5872 15.2021 2.83872C13.9178 2.09025 12.5183 1.71601 11.0036 1.71601C9.48882 1.71601 8.08928 2.09025 6.80495 2.83872C5.52062 3.5872 4.5042 4.60362 3.75569 5.88798C3.00718 7.17235 2.63295 8.57188 2.63298 10.0866C2.63302 11.6013 3.00725 13.0008 3.75569 14.2852C4.50413 15.5695 5.52055 16.586 6.80495 17.3345C8.08935 18.083 9.48889 18.4573 11.0036 18.4573Z" fill="#B0B0B0"/>
</svg>
